<svg width="24" height="24" viewBox="0 0 24 24" fill="none" xmlns="http://www.w3.org/2000/svg">
<path fill-rule="evenodd" clip-rule="evenodd" d="M12.0002 1.66666C6.12016 1.66666 1.3335 5.85332 1.3335 11C1.3335 16.1467 6.12016 20.3333 12.0002 20.3333C13.1003 20.3321 14.195 20.1795 15.2535 19.88L18.9402 22.2267C19.1452 22.3582 19.4056 22.3674 19.6194 22.2508C19.8332 22.1342 19.9664 21.9102 19.9668 21.6667V17.18C21.652 15.5634 22.6135 13.3351 22.6335 11C22.6668 5.85332 17.8802 1.66666 12.0002 1.66666ZM16.4802 8.33332C16.8484 8.33332 17.1468 8.03485 17.1468 7.66666C17.1468 7.29847 16.8484 6.99999 16.4802 6.99999H7.52016C7.15197 6.99999 6.8535 7.29847 6.8535 7.66666C6.8535 8.03485 7.15197 8.33332 7.52016 8.33332H16.4802ZM9.50016 13.6667C9.13197 13.6667 8.8335 13.9651 8.8335 14.3333C8.8335 14.7015 9.13197 15 9.50016 15H14.5002C14.8684 15 15.1668 14.7015 15.1668 14.3333C15.1668 13.9651 14.8684 13.6667 14.5002 13.6667H9.50016ZM7.3335 10.3333H16.6668C17.035 10.3333 17.3335 10.6318 17.3335 11C17.3335 11.3682 17.035 11.6667 16.6668 11.6667H7.3335C6.96531 11.6667 6.66683 11.3682 6.66683 11C6.66683 10.6318 6.96531 10.3333 7.3335 10.3333ZM18.6468 16.8933C18.6474 16.7085 18.7247 16.5323 18.8602 16.4067C20.4055 15.0304 21.3028 13.0691 21.3335 11C21.3335 6.58666 17.1468 2.99999 12.0002 2.99999C6.8535 2.99999 2.66683 6.58666 2.66683 11C2.66683 15.4133 6.8535 19 12.0002 19C13.0761 19.0009 14.146 18.8391 15.1735 18.52C15.3598 18.4623 15.562 18.4891 15.7268 18.5933L18.6468 20.4533V16.8933Z" fill="#E9ECEF"/>
</svg>
